<?xml version="1.0" encoding="UTF-8" standalone="no"?>
<!DOCTYPE svg PUBLIC "-//W3C//DTD SVG 1.1//EN" "http://www.w3.org/Graphics/SVG/1.1/DTD/svg11.dtd">
<svg width="100%" height="100%" viewBox="0 0 1247 885" version="1.1" xmlns="http://www.w3.org/2000/svg" xmlns:xlink="http://www.w3.org/1999/xlink" xml:space="preserve" xmlns:serif="http://www.serif.com/" style="fill-rule:evenodd;clip-rule:evenodd;stroke-linejoin:round;stroke-miterlimit:2;">
    <g transform="matrix(1,0,0,1,-727.063811,-677.242401)">
        <g transform="matrix(10.718832,-0.113405,0.11571,10.936719,-15238.171727,-9358.858841)">
            <g transform="matrix(39.994991,0,0,39.994991,1591.531371,993.854389)">
            </g>
            <text x="1507.502px" y="993.854px" style="font-family:'Shrikhand-Regular', 'Shrikhand';font-size:39.995px;">C<tspan x="1534.778px " y="993.854px ">N</tspan>C</text>
        </g>
        <g transform="matrix(1.333899,0,0,1.358249,-837.602375,-809.628744)">
            <path d="M1557.956,1587.547C1556.119,1600.737 1550.015,1640.211 1538.957,1655.437C1529.4,1668.596 1462.315,1623.409 1377.458,1607.473C1294.494,1591.892 1178.575,1604.061 1176.822,1602.721C1176.044,1602.126 1167.706,1595.753 1178.434,1590.582C1188.947,1585.514 1237.179,1577.606 1245.28,1577.731C1261.011,1561.525 1350.315,1507.173 1412.702,1347.387C1454.061,1241.458 1454.605,1180.423 1454.002,1094.697C1469.067,1112.449 1523.754,1163.867 1560.4,1299.501C1566.775,1323.097 1570.561,1353.101 1571.155,1357.807C1568.448,1356.623 1551.464,1353.353 1546.643,1353.363C1539.328,1282.301 1515.555,1212.141 1467.902,1133.786C1475.245,1250.088 1430.262,1409.074 1281.507,1578.15C1358.721,1576.196 1430.741,1578.792 1512.579,1618.452C1513.747,1614.579 1519.297,1597.06 1520.422,1593.205C1540.65,1594.15 1555.041,1588.202 1557.956,1587.547Z"/>
        </g>
        <g transform="matrix(1.244433,0.00094,-0.000982,0.668025,611.765921,1008.594732)">
            <path d="M1056.623,635.926C1056.408,635.813 1056.179,635.808 1055.963,635.695C1054.792,635.081 1037.928,621.682 1012.508,613.037C995.813,607.359 958.663,595.88 900.713,613.637C892.577,616.131 869.61,622.484 834.324,641.64C827.508,645.34 804.113,657.209 768.365,682.685C763.316,686.283 741.097,700.959 706.852,728.854C700.529,734.005 700.471,733.734 684.38,746.815C681.531,749.131 675.763,753.969 663.272,762.592C649.794,771.896 643.358,775.271 642.959,775.496C628.312,783.75 619.195,787.5 617.105,788.36C600.011,795.391 589.202,797.698 586.753,798.221C583.994,798.81 556.424,805.336 526.642,799.25C520.802,798.057 513.901,795.74 512.798,795.37C493.412,788.862 477.202,778.821 464.279,769.173C456.885,763.653 448.081,755.573 446.696,754.301C433.636,742.315 421.471,729.149 410.413,716.672C396.87,701.391 371.175,668.414 346.815,644.869C339.364,637.667 327.431,626.673 310.481,615.713C277.152,594.163 248.817,592.724 232.625,592.795C258.447,583.602 286.635,579.937 319.869,590.822C325.975,592.822 333.453,596.311 334.625,596.858C366.945,611.939 395.331,637.087 424.502,660.002C432.186,666.039 453.174,684.033 477.007,695.976C484.872,699.918 503.529,709.958 529.79,710.638C536.362,710.808 554.152,712.269 582.016,701.83C588.375,699.448 592.794,698.27 607.574,690.851C610.255,689.505 618.371,685.747 631.791,677.467C633.531,676.393 642.582,671.352 656.696,661.511C658.828,660.024 659.828,659.438 664.646,656.091C684.12,642.56 688.049,640.201 693.975,636.558C721.876,619.403 742.346,608.841 753.079,603.451C753.18,603.401 767.054,596.704 784.416,589.754C811.017,579.106 827.791,574.826 831.591,573.856C851.838,568.69 874.052,564.834 897.01,564.151C906.174,563.879 916.549,564.696 918.247,564.829C955.723,567.78 987.021,579.768 1013.449,597.375C1025.537,605.428 1036.407,615.432 1038.349,617.219C1047.836,625.95 1054.626,633.666 1056.623,635.926Z"/>
        </g>
    </g>
</svg>
