<?xml version="1.0" encoding="UTF-8" standalone="no"?><!DOCTYPE svg PUBLIC "-//W3C//DTD SVG 1.1//EN" "http://www.w3.org/Graphics/SVG/1.1/DTD/svg11.dtd"><svg width="100%" height="100%" viewBox="0 0 1344 921" version="1.1" xmlns="http://www.w3.org/2000/svg" xmlns:xlink="http://www.w3.org/1999/xlink" xml:space="preserve" xmlns:serif="http://www.serif.com/" style="fill-rule:evenodd;clip-rule:evenodd;stroke-linejoin:round;stroke-miterlimit:2;"><g><g transform="matrix(0.980023,-0.010369,0.010579,0.999944,-211.96486,-165.613508)"><g transform="matrix(436.899886,0,0,436.899886,1467.195239,832.986711)"></g><text x="549.269px" y="832.987px" style="font-family:'Shrikhand-Regular', 'Shrikhand';font-size:436.9px;fill:#d2d2d2;">C<tspan x="847.234px " y="832.987px ">N</tspan>C</text></g><path d="M524.657,672.355c-2.447,17.893 -10.183,67.677 -24.916,88.332c-27.331,38.319 -122.662,-86.107 -413.791,-70.995c-5.486,0.285 -63.747,3.309 -68.664,-0.518c-1.037,-0.807 -12.146,-9.453 2.147,-16.468c14.007,-6.875 78.264,-17.603 89.056,-17.433c20.958,-21.985 139.934,-95.717 223.05,-312.48c55.101,-143.701 55.825,-226.499 55.022,-342.793c20.07,24.081 92.928,93.834 141.75,277.832c8.493,32.01 13.537,72.713 14.328,79.097c-3.606,-1.607 -26.233,-6.043 -32.656,-6.029c-9.746,-96.4 -41.417,-191.579 -104.903,-297.873c9.783,157.772 -50.147,373.449 -248.327,602.814c102.87,-2.65 198.818,0.872 307.848,54.672c1.555,-5.253 8.949,-29.02 10.448,-34.249c26.95,1.282 45.726,-3.019 49.609,-3.909Z" style="fill:#d2d2d2;"/><path d="M69.478,700.227c22.494,10.337 30.548,40.945 17.973,68.31c-12.575,27.364 -41.046,41.188 -63.541,30.852c-22.494,-10.337 -30.548,-40.945 -17.973,-68.31c12.575,-27.364 41.046,-41.188 63.541,-30.852Zm-14.48,23.821c-14.346,-6.593 -32.504,2.224 -40.524,19.676c-8.02,17.452 -2.884,36.973 11.463,43.566c14.346,6.593 32.504,-2.224 40.524,-19.676c8.02,-17.452 2.884,-36.973 -11.463,-43.566Z" style="fill:#d2d2d2;"/><path d="M1246.004,767.087c-178.745,-55.04 -274.596,-26.46 -452.008,45.826c-350.558,142.833 -370.927,-88.105 -641.429,-85.34c215.018,-37.11 286.87,98.158 467.486,71.336c119.695,-17.775 204.604,-67.229 329.905,-83.858c135.93,-18.039 223.039,16.28 296.046,52.036Z" style="fill:#d2d2d2;"/><path d="M463.896,890.193c152.227,27.999 270.264,-31.255 363.945,-73.124l28.927,-12.663c3.394,-1.486 112.991,-52.65 217.467,-51.459c22.215,0.253 164.527,1.875 268.877,68.639c-92.961,-35.047 -253.16,-35.329 -365.889,4.51l0.069,-0.021c-130.107,46.846 -320.046,143.968 -513.396,64.118Z" style="fill:#d2d2d2;"/><path d="M101.458,741.451c131.487,-24.864 232.222,39.8 283.985,69.206c7.953,4.518 143.571,92.662 304.171,50.618c-142.464,59.472 -261.177,4.269 -282.273,-5.541c-71.132,-33.078 -157.771,-120.784 -305.884,-114.282Z" style="fill:#d2d2d2;"/></g></svg>