<?xml version="1.0" encoding="UTF-8" standalone="no"?><!DOCTYPE svg PUBLIC "-//W3C//DTD SVG 1.1//EN" "http://www.w3.org/Graphics/SVG/1.1/DTD/svg11.dtd"><svg width="100%" height="100%" viewBox="0 0 1200 1200" version="1.1" xmlns="http://www.w3.org/2000/svg" xmlns:xlink="http://www.w3.org/1999/xlink" xml:space="preserve" xmlns:serif="http://www.serif.com/" style="fill-rule:evenodd;clip-rule:evenodd;stroke-linejoin:round;stroke-miterlimit:2;"><g transform="translate(392, 469.5)"><g><g transform="matrix(0.980023,-0.010369,0.010579,0.999944,-69.985532,-54.645172)"><g transform="matrix(144.119287,0,0,144.119287,482.556222,278.240073)"></g><text x="179.762px" y="278.24px" style="font-family:'Shrikhand-Regular', 'Shrikhand';font-size:144.119px;fill:#d2d2d2;">C<tspan x="278.051px " y="278.24px ">N</tspan>C</text></g><path d="M173.445,227.354c-0.825,6.033 -3.433,22.818 -8.4,29.782c-9.215,12.92 -41.356,-29.031 -139.513,-23.936c-1.85,0.096 -21.493,1.116 -23.151,-0.175c-0.35,-0.272 -4.095,-3.187 0.724,-5.552c4.722,-2.318 26.387,-5.935 30.026,-5.878c7.066,-7.412 47.18,-32.272 75.203,-105.355c18.578,-48.45 18.822,-76.366 18.551,-115.575c6.767,8.119 31.331,31.637 47.792,93.673c2.864,10.792 4.564,24.516 4.831,26.668c-1.216,-0.542 -8.845,-2.037 -11.01,-2.033c-3.286,-32.502 -13.964,-64.592 -35.369,-100.43c3.298,53.194 -16.907,125.911 -83.725,203.243c34.683,-0.893 67.033,0.294 103.793,18.433c0.524,-1.771 3.017,-9.784 3.523,-11.547c9.086,0.432 15.417,-1.018 16.726,-1.318Z" style="fill:#d2d2d2;stroke:#d2d2d2;stroke-width:1.33px;"/></g></g></svg>