<?xml version="1.0" encoding="UTF-8" standalone="no"?><!DOCTYPE svg PUBLIC "-//W3C//DTD SVG 1.1//EN" "http://www.w3.org/Graphics/SVG/1.1/DTD/svg11.dtd"><svg width="100%" height="100%" viewBox="0 0 72 72" version="1.1" xmlns="http://www.w3.org/2000/svg" xmlns:xlink="http://www.w3.org/1999/xlink" xml:space="preserve" xmlns:serif="http://www.serif.com/" style="fill-rule:evenodd;clip-rule:evenodd;stroke-linejoin:round;stroke-miterlimit:2;"><path id="Optmiste" d="M39.829,11.137c-0.076,-0.153 -0.029,-0.339 0.111,-0.438c0.14,-0.099 0.331,-0.08 0.45,0.043l8.837,9.175c0.052,0.054 0.123,0.085 0.198,0.086c0.075,0.001 0.147,-0.028 0.2,-0.081l0.247,-0.245c0.051,-0.05 0.121,-0.075 0.192,-0.068l0.628,0.061c0.123,0.012 0.217,0.115 0.217,0.239l0.003,2.096l-0.102,10.326c-0.001,0.103 -0.073,0.193 -0.174,0.216c-0.101,0.023 -0.204,-0.026 -0.25,-0.119l-10.558,-21.291Zm-13.468,36.823c0.066,0.001 0.128,0.028 0.173,0.075c0.045,0.047 0.069,0.111 0.067,0.177l-0.017,0.488c-0.004,0.128 -0.107,0.23 -0.235,0.235l-8.916,0.309c-0.096,0.003 -0.172,0.081 -0.174,0.176l-0.212,10.193c-0.008,0.404 -0.342,0.725 -0.746,0.719l-3.697,-0.061c-0.219,-0.004 -0.424,-0.104 -0.561,-0.275c-0.137,-0.171 -0.19,-0.393 -0.146,-0.608l2.285,-11.063c0.061,-0.295 0.322,-0.506 0.624,-0.502l11.555,0.137Zm10.371,-38.488c0.094,-0.113 0.238,-0.17 0.384,-0.153c0.146,0.017 0.273,0.106 0.339,0.238l13.137,26.344c0.073,0.147 0.113,0.309 0.117,0.473l0.222,9.586c0,0 -0.012,2.43 0.023,2.967c0.007,0.104 0.064,0.253 0.184,0.252c0.843,-0.002 4.369,-0.105 5.406,0.042c0.955,0.136 -0.433,3.144 -0.433,3.144c0,0 -1.477,3.11 -3.37,3.878c-3.771,1.53 -11.065,1.943 -18.327,1.996c-7.228,0.052 -12.634,-1.253 -14.977,-1.943c-0.836,-0.246 -1.12,-0.709 -1.254,-1.294c-0.087,-0.378 -0.11,-1.936 -0.037,-3.23c0.032,-0.559 0.161,-1.288 0.344,-1.451c0.183,-0.163 2.451,-0.292 2.451,-0.292c0,0 23.059,-0.546 27.717,-0.702c0.109,-0.004 0.225,-0.123 0.232,-0.232c0.038,-0.601 -0.003,-3.374 -0.003,-3.374l-26.574,-3.134c-0.21,-0.025 -0.366,-0.208 -0.356,-0.42l0.042,-0.921c0.009,-0.202 0.166,-0.366 0.367,-0.384l0.721,-0.065c0.171,-0.016 0.314,-0.138 0.356,-0.305l5.269,-21.189c0.047,-0.188 0.136,-0.363 0.26,-0.512l7.761,-9.314Z" style="fill:#fff;"/></svg>