<?xml version="1.0" encoding="UTF-8" standalone="no"?><!DOCTYPE svg PUBLIC "-//W3C//DTD SVG 1.1//EN" "http://www.w3.org/Graphics/SVG/1.1/DTD/svg11.dtd"><svg width="100%" height="100%" viewBox="0 0 72 72" version="1.1" xmlns="http://www.w3.org/2000/svg" xmlns:xlink="http://www.w3.org/1999/xlink" xml:space="preserve" xmlns:serif="http://www.serif.com/" style="fill-rule:evenodd;clip-rule:evenodd;stroke-linejoin:round;stroke-miterlimit:2;"><g id="Paddle"><path d="M30.945,10.435c4.799,0 8.695,12.004 8.695,26.789c0,14.785 -3.896,26.789 -8.695,26.789c-4.799,0 -8.695,-12.004 -8.695,-26.789c0,-14.785 3.896,-26.789 8.695,-26.789Zm5.502,42.36c0.163,-0.795 -0.223,-1.6 -0.943,-1.973c-1.271,-0.656 -3.271,-1.573 -4.501,-1.573c-1.233,0 -3.281,0.922 -4.581,1.577c-0.73,0.369 -1.122,1.182 -0.958,1.983c1.078,5.226 3.134,8.762 5.491,8.762c2.359,0 4.417,-3.542 5.492,-8.776Zm-4.377,-17.58c0,-0.623 -0.505,-1.128 -1.128,-1.128c-0.623,0 -1.128,0.505 -1.128,1.128l0,2.933c0,0.623 0.505,1.128 1.128,1.128c0.623,0 1.128,-0.505 1.128,-1.128l0,-2.933Z" style="fill:#fff;"/><path d="M47.073,14.921c-0.089,0.196 -0.144,0.427 -0.144,0.427l0,33.406c0,0 4.359,8.866 4.179,11.571c-0.123,1.847 -3.508,4.183 -5.26,4.183c-1.752,0 -5.128,-2.339 -5.251,-4.183c-0.18,-2.701 4.172,-11.547 4.172,-11.547l0.044,-33.519c0,0 -0.051,-0.185 -0.134,-0.338l-0.336,0c-0.593,0 -1.075,-0.482 -1.075,-1.075c0,-0.593 0.482,-1.075 1.075,-1.075l3.119,0c0.593,0 1.075,0.482 1.075,1.075c0,0.593 -0.482,1.075 -1.075,1.075l-0.39,-0Z" style="fill:#fff;"/></g></svg>